<svg width="20" height="17" viewBox="0 0 20 17" fill="none" xmlns="http://www.w3.org/2000/svg">
<path d="M11 4.5H9V6.5H11V4.5Z" fill="#554F52"/>
<path d="M12 4.5H14V6.5H12V4.5Z" fill="#554F52"/>
<path d="M17 4.5H15V6.5H17V4.5Z" fill="#554F52"/>
<path d="M6 4.5H8V6.5H6V4.5Z" fill="#554F52"/>
<path d="M11 8.5H9V10.5H11V8.5Z" fill="#554F52"/>
<path d="M12 8.5H14V10.5H12V8.5Z" fill="#554F52"/>
<path d="M17 8.5H15V10.5H17V8.5Z" fill="#554F52"/>
<path d="M6 8.5H8V10.5H6V8.5Z" fill="#554F52"/>
<path d="M5 8.5H3V10.5H5V8.5Z" fill="#554F52"/>
<path d="M9 12.5H11V14.5H9V12.5Z" fill="#554F52"/>
<path d="M8 12.5H6V14.5H8V12.5Z" fill="#554F52"/>
<path d="M3 12.5H5V14.5H3V12.5Z" fill="#554F52"/>
<path fill-rule="evenodd" clip-rule="evenodd" d="M0.5 0.5H19.5V17H0.5V0.5ZM1.5 16V3H18.5V16H1.5Z" fill="#554F52"/>
</svg>
