<svg width="20" height="20" viewBox="0 0 20 20" fill="none" xmlns="http://www.w3.org/2000/svg">
<path fill-rule="evenodd" clip-rule="evenodd" d="M6.60503 5.42072C6.49485 5.46636 6.37676 5.48985 6.25749 5.48985C6.02005 5.4899 5.79201 5.39697 5.62226 5.23094C5.4525 5.06492 5.35452 4.83901 5.3493 4.60162V1.32817C5.3493 1.0873 5.445 0.856297 5.61531 0.685979C5.78563 0.515661 6.01663 0.419978 6.25749 0.419978C6.37713 0.418641 6.49583 0.441222 6.60662 0.486389C6.71741 0.531556 6.81806 0.598402 6.90266 0.683002C6.98726 0.767602 7.05409 0.868251 7.09925 0.979041C7.14442 1.08983 7.16702 1.20853 7.16568 1.32817V4.58167C7.16568 4.70093 7.14218 4.81902 7.09654 4.92921C7.0509 5.03939 6.984 5.13951 6.89967 5.22384C6.81534 5.30818 6.71522 5.37508 6.60503 5.42072ZM15.529 2.26636H17.0559C17.8344 2.27927 18.5773 2.59495 19.1269 3.14646C19.6766 3.69796 19.9897 4.44189 20 5.22045V16.5877C20.0001 17.3732 19.6915 18.1273 19.1408 18.6874C18.59 19.2474 17.8413 19.5687 17.0559 19.5817H2.99402C2.19995 19.5817 1.4384 19.2663 0.876909 18.7048C0.315422 18.1433 0 17.3818 0 16.5877V5.26037C0 4.46631 0.315422 3.70477 0.876909 3.14328C1.4384 2.5818 2.19995 2.26636 2.99402 2.26636H4.45109V4.08273H2.99402C2.84461 4.08273 2.69664 4.11215 2.55861 4.16933C2.42057 4.22651 2.29515 4.31031 2.1895 4.41595C2.08385 4.5216 2.00007 4.64702 1.94289 4.78506C1.88572 4.92309 1.85627 5.07104 1.85627 5.22045V16.5478C1.85627 16.8496 1.97614 17.1389 2.1895 17.3523C2.40287 17.5657 2.69227 17.6855 2.99402 17.6855H17.0958C17.3967 17.6829 17.6846 17.5622 17.8974 17.3494C18.1102 17.1366 18.2309 16.8487 18.2335 16.5478V5.22045C18.2323 5.06802 18.2006 4.91737 18.1405 4.7773C18.0804 4.63723 17.993 4.51053 17.8833 4.40462C17.7737 4.2987 17.6441 4.21569 17.502 4.16042C17.3599 4.10515 17.2083 4.07874 17.0559 4.08273H15.529V2.26636ZM13.7127 5.48985C13.8319 5.48985 13.95 5.46636 14.0602 5.42072C14.1704 5.37508 14.2705 5.30818 14.3548 5.22384C14.4392 5.13951 14.5061 5.03939 14.5517 4.92921C14.5974 4.81902 14.6208 4.70093 14.6208 4.58167V1.32817C14.6222 1.20853 14.5996 1.08983 14.5544 0.979041C14.5093 0.868251 14.4424 0.767602 14.3578 0.683002C14.2732 0.598402 14.1726 0.531556 14.0618 0.486389C13.951 0.441222 13.8323 0.418641 13.7127 0.419978C13.4718 0.419978 13.2408 0.515661 13.0705 0.685979C12.9002 0.856297 12.8045 1.0873 12.8045 1.32817V4.60162C12.8097 4.83901 12.9077 5.06492 13.0774 5.23094C13.2472 5.39697 13.4752 5.4899 13.7127 5.48985ZM7.7645 2.26636H12.0559V4.08273H7.7645V2.26636Z" fill="#6F676C"/>
</svg>
