<svg width="16" height="21" viewBox="0 0 16 21" fill="none" xmlns="http://www.w3.org/2000/svg">
<path d="M6.16497 5.55C6.16497 6.66 5.75497 7.05 5.25497 7.05C4.72997 7.05 4.34497 6.66 4.34497 5.55C4.34497 4.44 4.73997 4.05 5.25497 4.05C5.76997 4.05 6.16497 4.44 6.16497 5.55Z" fill="#554F52"/>
<path fill-rule="evenodd" clip-rule="evenodd" d="M15.5 2V18.705C15.5073 18.9726 15.4787 19.24 15.415 19.5C15.3116 19.7926 15.1199 20.0459 14.8665 20.225C14.6131 20.4041 14.3103 20.5002 14 20.5H2C1.60218 20.5 1.22064 20.342 0.93934 20.0607C0.658035 19.7794 0.5 19.3978 0.5 19V2C0.5 1.60218 0.658035 1.22064 0.93934 0.93934C1.22064 0.658035 1.60218 0.5 2 0.5H14C14.3978 0.5 14.7794 0.658035 15.0607 0.93934C15.342 1.22064 15.5 1.60218 15.5 2ZM7.21 5.56C7.21 3.995 6.42 3.175 5.255 3.175C4.085 3.175 3.3 3.99 3.3 5.56C3.3 7.13 4.09 7.955 5.255 7.955C6.42 7.955 7.21 7.125 7.21 5.56ZM4 13.365H7.525C7.65761 13.365 7.78479 13.3123 7.87855 13.2186C7.97232 13.1248 8.025 12.9976 8.025 12.865C8.025 12.7324 7.97232 12.6052 7.87855 12.5114C7.78479 12.4177 7.65761 12.365 7.525 12.365H4C3.86739 12.365 3.74021 12.4177 3.64645 12.5114C3.55268 12.6052 3.5 12.7324 3.5 12.865C3.5 12.9976 3.55268 13.1248 3.64645 13.2186C3.74021 13.3123 3.86739 13.365 4 13.365ZM4 10.365H7.525C7.65761 10.365 7.78479 10.3123 7.87855 10.2186C7.97232 10.1248 8.025 9.99761 8.025 9.865C8.025 9.73239 7.97232 9.60522 7.87855 9.51145C7.78479 9.41768 7.65761 9.365 7.525 9.365H4C3.86739 9.365 3.74021 9.41768 3.64645 9.51145C3.55268 9.60522 3.5 9.73239 3.5 9.865C3.5 9.99761 3.55268 10.1248 3.64645 10.2186C3.74021 10.3123 3.86739 10.365 4 10.365ZM8.57 6.53L7.62 6.815C7.74816 7.1742 7.99207 7.48062 8.31338 7.68608C8.63469 7.89153 9.01517 7.98437 9.395 7.95C10.4 7.95 11.065 7.405 11.065 6.535C11.065 5.63763 10.2926 5.35885 9.65092 5.12725C9.19497 4.96268 8.805 4.82193 8.805 4.5C8.805 4.23 9.03 4.07 9.335 4.07C9.48475 4.07125 9.63015 4.12049 9.74985 4.21048C9.86954 4.30048 9.95722 4.42649 10 4.57L11 4.295C10.9021 3.93576 10.6789 3.62338 10.3708 3.4143C10.0627 3.20523 9.69 3.11326 9.32 3.155C8.43 3.155 7.72 3.625 7.72 4.505C7.72 5.46621 8.52878 5.7621 9.17761 5.99947C9.61218 6.15846 9.975 6.2912 9.975 6.58C9.975 6.865 9.715 7.03 9.405 7.03C9.2309 7.04517 9.05646 7.00501 8.90652 6.91523C8.75659 6.82545 8.63882 6.69064 8.57 6.53Z" fill="#554F52"/>
</svg>
