<svg width="20" height="20" viewBox="0 0 20 20" fill="none" xmlns="http://www.w3.org/2000/svg">
<path d="M18.8837 16.6512L14.6976 12.4651C15.6279 11.1628 16.186 9.48837 16.186 7.81395C16.279 3.53488 12.7442 0 8.37206 0C3.99997 0 0.465088 3.53488 0.465088 7.90698C0.465088 12.2791 3.99997 15.814 8.37206 15.814C9.48834 15.814 10.6976 15.5349 11.7209 15.0698L16.093 19.4419C16.4651 19.814 16.9302 20 17.4883 20C17.9535 20 18.5116 19.814 18.8837 19.4419L18.9767 19.3488C19.3488 18.9767 19.5349 18.5116 19.5349 18.0465C19.4418 17.4884 19.2558 17.0233 18.8837 16.6512ZM13.9535 7.90698C13.9535 10.9767 11.4418 13.4884 8.37206 13.4884C5.3023 13.4884 2.79067 10.9767 2.79067 7.90698C2.79067 4.83721 5.3023 2.32558 8.37206 2.32558C11.4418 2.32558 13.9535 4.83721 13.9535 7.90698Z" fill="#41A017"/>
</svg>
