<svg width="18" height="20" viewBox="0 0 18 20" fill="none" xmlns="http://www.w3.org/2000/svg">
<path d="M16.2851 9.13469C16.2851 9.06469 16.2851 8.99469 16.2851 8.92469C16.2901 3.68969 13.7001 0.804688 9.00014 0.804688C4.30014 0.804688 1.71014 3.68969 1.71014 8.92469C1.71014 8.99469 1.71014 9.06469 1.71014 9.13469C1.28514 9.42469 0.845136 10.0397 0.990136 11.3147C1.13514 12.5897 1.76514 13.6497 2.54014 13.9297C3.80514 17.4997 6.26014 19.7097 9.00014 19.7097C11.7401 19.7097 14.1951 17.4997 15.4551 13.9297C16.2301 13.6497 16.8601 12.6247 17.0051 11.3147C17.1501 10.0047 16.7101 9.42469 16.2851 9.13469ZM16.0001 11.2047C15.8751 12.2947 15.3501 12.9847 15.0301 13.0047H14.6901L14.5801 13.3297C13.5001 16.6547 11.3651 18.7097 9.00014 18.7097C6.63514 18.7097 4.50014 16.6547 3.40514 13.3447L3.29514 12.9997H2.95514C2.63514 12.9997 2.11014 12.2897 1.98514 11.1997C1.90514 10.4697 2.04514 10.0247 2.40514 9.88969L2.74014 9.75969V9.58969C2.92664 9.5403 3.10633 9.46809 3.27514 9.37469C3.80467 9.01248 4.24007 8.52908 4.54514 7.96469C4.73905 7.60478 5.00448 7.2883 5.32514 7.03469C5.60014 6.87969 6.45514 7.25469 6.96514 7.47969C7.37764 7.69358 7.81886 7.84682 8.27514 7.93469C9.21514 8.03469 11.4651 7.53969 11.9301 7.38969C12.1991 7.34085 12.4766 7.37272 12.7275 7.48127C12.9784 7.58982 13.1916 7.7702 13.3401 7.99969C13.6201 8.38969 14.1951 8.80469 15.2751 9.39969V9.76969L15.6101 9.89969C15.9551 10.0297 16.0951 10.4997 16.0001 11.2047Z" fill="#554F52"/>
</svg>
